<svg width="16" height="16" viewBox="0 0 16 16" fill="none" xmlns="http://www.w3.org/2000/svg">
<path d="M4.66683 4C4.29865 4 4.00017 4.29848 4.00017 4.66667C4.00017 5.03485 4.29865 5.33333 4.66683 5.33333V4ZM11.3335 4.66667H12.0002C12.0002 4.29848 11.7017 4 11.3335 4V4.66667ZM10.6668 11.3333C10.6668 11.7015 10.9653 12 11.3335 12C11.7017 12 12.0002 11.7015 12.0002 11.3333H10.6668ZM3.52877 11.5286C3.26841 11.7889 3.26841 12.2111 3.52877 12.4714C3.78911 12.7318 4.21122 12.7318 4.47157 12.4714L3.52877 11.5286ZM4.66683 5.33333H11.3335V4H4.66683V5.33333ZM10.6668 4.66667V11.3333H12.0002V4.66667H10.6668ZM10.8621 4.19527L3.52877 11.5286L4.47157 12.4714L11.8049 5.13807L10.8621 4.19527Z" fill="#22242C"/>
</svg>
